<svg xmlns="http://www.w3.org/2000/svg" version="1.1" xmlns:xlink="http://www.w3.org/1999/xlink" xmlns:svgjs="http://svgjs.com/svgjs" width="512" height="512"><svg xmlns="http://www.w3.org/2000/svg" xmlns:xlink="http://www.w3.org/1999/xlink" xmlns:svgjs="http://svgjs.com/svgjs" version="1.1" width="512" height="512" x="0" y="0" viewBox="0 0 511.986 511.986" style="enable-background:new 0 0 512 512" xml:space="preserve" class=""><g><path xmlns="http://www.w3.org/2000/svg" d="m429.846 287.319c0-52.325-27.761-115.162-82.511-186.764-40.009-52.324-79.432-89.404-81.091-90.957l-10.251-9.598-10.252 9.598c-1.659 1.553-41.082 38.633-81.09 90.957-54.75 71.602-82.511 134.439-82.511 186.764 0 90.809 69.987 165.567 158.853 173.199v51.469h30v-51.469c88.866-7.632 158.853-82.39 158.853-173.199zm-188.853 38.224-111.086-111.086c9.854-22.511 22.809-44.59 36.244-64.599l74.842 74.842zm30-100.841 74.843-74.843c13.435 20.008 26.39 42.087 36.244 64.599l-111.087 111.086zm52.778-105.576c1.476 1.933 2.964 3.905 4.46 5.91l-57.239 57.239v-125.17c14.582 15.519 33.755 37.109 52.779 62.021zm-82.778-62.021v125.17l-57.238-57.238c1.496-2.005 2.985-3.978 4.461-5.91 19.024-24.913 38.196-46.503 52.777-62.022zm-128.853 230.214c0-13.528 2.361-27.591 6.422-41.781l122.431 122.432v62.422c-72.298-7.525-128.853-68.817-128.853-143.073zm158.853 143.073v-62.421l122.432-122.432c4.061 14.19 6.422 28.253 6.422 41.781-.001 74.255-56.556 135.547-128.854 143.072z" fill="#d63b03" data-original="#000000" style="" class=""></path></g></svg><style>@media (prefers-color-scheme: light) { :root { filter: none; } }
</style></svg>