<svg width="512" height="512" viewBox="0 0 512 512" fill="none" xmlns="http://www.w3.org/2000/svg">
<path d="M512 314.144C512 279.784 483.656 248.531 432.189 226.143C384.753 205.509 322.181 194.144 256 194.144C189.819 194.144 127.248 205.508 79.811 226.143C28.344 248.531 0 279.784 0 314.144C0 335.809 11.472 356.286 33.082 374.144H0V404.144H32.509C39.477 438.336 69.78 464.144 106 464.144H406C442.22 464.144 472.522 438.336 479.491 404.144H512V374.144H478.917C500.528 356.286 512 335.809 512 314.144ZM389.572 242.425C387.396 254.371 382.773 265.697 375.989 275.714C367.781 263.633 362.784 249.724 361.405 235.048C371.152 237.204 380.566 239.665 389.572 242.425ZM271 224.356V241.718C271 259.452 265.755 276.38 256 290.731C246.245 276.38 241 259.452 241 241.718V224.356C245.972 224.22 250.972 224.144 256 224.144C261.028 224.144 266.028 224.22 271 224.356ZM150.596 235.048C149.217 249.723 144.22 263.633 136.012 275.714C129.228 265.696 124.604 254.37 122.429 242.425C131.434 239.665 140.848 237.205 150.596 235.048ZM30 314.144C30 292.779 52.517 270.731 91.778 253.653C92.485 253.345 93.206 253.047 93.921 252.743C98.789 274.207 109.614 293.97 125.394 309.75L136 320.358L146.606 309.751C168.131 288.226 180.269 259.816 180.966 229.487C190.752 228.045 200.779 226.884 211 226.02V241.718C211 273.084 223.214 302.572 245.394 324.751L256 335.358L266.606 324.751C288.785 302.572 301 273.084 301 241.718V226.02C311.221 226.884 321.248 228.044 331.034 229.487C331.731 259.816 343.869 288.226 365.394 309.751L376 320.357L386.606 309.751C402.386 293.971 413.21 274.208 418.079 252.744C418.794 253.047 419.515 253.346 420.222 253.654C459.482 270.731 482 292.78 482 314.144C482 335.129 459.743 356.906 420.823 374.144H91.177C52.256 356.906 30 335.13 30 314.144ZM406 434.144H106C86.445 434.144 69.772 421.602 63.58 404.144H448.42C442.228 421.603 425.555 434.144 406 434.144Z" fill="#093868"/>
<path d="M171.122 122.933C175.437 126.708 177.912 132.162 177.912 137.894C177.912 143.626 175.437 149.08 171.122 152.855L190.878 175.432C201.703 165.959 207.912 152.277 207.912 137.893C207.912 123.509 201.704 109.827 190.878 100.354C186.563 96.579 184.088 91.125 184.088 85.393C184.088 79.661 186.563 74.207 190.878 70.432L171.122 47.855C160.297 57.328 154.088 71.01 154.088 85.394C154.088 99.778 160.297 113.46 171.122 122.933Z" fill="#093868"/>
<path d="M246.122 122.933C250.437 126.708 252.912 132.162 252.912 137.894C252.912 143.626 250.437 149.08 246.122 152.855L265.878 175.432C276.703 165.959 282.911 152.277 282.911 137.893C282.911 123.509 276.703 109.827 265.878 100.354C261.563 96.579 259.088 91.125 259.088 85.393C259.088 79.661 261.563 74.207 265.878 70.432L246.122 47.855C235.297 57.328 229.088 71.01 229.088 85.394C229.088 99.778 235.297 113.46 246.122 122.933Z" fill="#093868"/>
<path d="M321.122 122.933C325.436 126.708 327.911 132.162 327.911 137.894C327.911 143.626 325.436 149.08 321.122 152.855L340.878 175.432C351.703 165.959 357.911 152.277 357.911 137.893C357.911 123.509 351.703 109.827 340.878 100.354C336.564 96.579 334.089 91.125 334.089 85.393C334.089 79.661 336.564 74.207 340.878 70.432L321.122 47.855C310.297 57.328 304.089 71.01 304.089 85.394C304.089 99.778 310.297 113.46 321.122 122.933Z" fill="#093868"/>
</svg>
