<?xml version="1.0"?>
<svg xmlns="http://www.w3.org/2000/svg" xmlns:xlink="http://www.w3.org/1999/xlink" xmlns:svgjs="http://svgjs.com/svgjs" version="1.1" width="512" height="512" x="0" y="0" viewBox="0 0 512 512" style="enable-background:new 0 0 512 512" xml:space="preserve" class=""><g>
<g xmlns="http://www.w3.org/2000/svg">
	<path d="M512,314.144c0-34.36-28.344-65.613-79.811-88.001C384.753,205.509,322.181,194.144,256,194.144   s-128.752,11.364-176.189,31.999C28.344,248.531,0,279.784,0,314.144c0,21.665,11.472,42.142,33.082,60H0v30h32.509   c6.968,34.192,37.271,60,73.491,60h300c36.22,0,66.522-25.808,73.491-60H512v-30h-33.083C500.528,356.286,512,335.809,512,314.144z    M389.572,242.425c-2.176,11.946-6.799,23.272-13.583,33.289c-8.208-12.081-13.205-25.99-14.584-40.666   C371.152,237.204,380.566,239.665,389.572,242.425z M271,224.356v17.362c0,17.734-5.245,34.662-15,49.013   c-9.755-14.351-15-31.279-15-49.013v-17.362c4.972-0.136,9.972-0.212,15-0.212S266.028,224.22,271,224.356z M150.596,235.048   c-1.379,14.675-6.376,28.585-14.584,40.666c-6.784-10.018-11.408-21.344-13.583-33.289   C131.434,239.665,140.848,237.205,150.596,235.048z M30,314.144c0-21.365,22.517-43.413,61.778-60.491   c0.707-0.308,1.428-0.606,2.143-0.91c4.868,21.464,15.693,41.227,31.473,57.007L136,320.358l10.606-10.607   c21.525-21.525,33.663-49.935,34.36-80.264c9.786-1.442,19.813-2.603,30.034-3.467v15.698c0,31.366,12.214,60.854,34.394,83.033   L256,335.358l10.606-10.607C288.785,302.572,301,273.084,301,241.718V226.02c10.221,0.864,20.248,2.024,30.034,3.467   c0.697,30.329,12.835,58.739,34.36,80.264L376,320.357l10.606-10.606c15.78-15.78,26.604-35.543,31.473-57.007   c0.715,0.303,1.436,0.602,2.143,0.91C459.482,270.731,482,292.78,482,314.144c0,20.985-22.257,42.762-61.177,60H91.177   C52.256,356.906,30,335.13,30,314.144z M406,434.144H106c-19.555,0-36.228-12.542-42.42-30H448.42   C442.228,421.603,425.555,434.144,406,434.144z" fill="#ffffff" data-original="#000000" style="" class=""/>
	<path d="M171.122,122.933c4.315,3.775,6.79,9.229,6.79,14.961s-2.475,11.186-6.79,14.961l19.756,22.577   c10.825-9.473,17.034-23.155,17.034-37.539s-6.208-28.066-17.034-37.539c-4.315-3.775-6.79-9.229-6.79-14.961   s2.475-11.186,6.79-14.961l-19.756-22.577c-10.825,9.473-17.034,23.155-17.034,37.539S160.297,113.46,171.122,122.933z" fill="#ffffff" data-original="#000000" style="" class=""/>
	<path d="M246.122,122.933c4.315,3.775,6.79,9.229,6.79,14.961s-2.475,11.186-6.79,14.961l19.756,22.577   c10.825-9.473,17.033-23.155,17.033-37.539s-6.208-28.066-17.033-37.539c-4.315-3.775-6.79-9.229-6.79-14.961   s2.475-11.186,6.79-14.961l-19.756-22.577c-10.825,9.473-17.034,23.155-17.034,37.539S235.297,113.46,246.122,122.933z" fill="#ffffff" data-original="#000000" style="" class=""/>
	<path d="M321.122,122.933c4.314,3.775,6.789,9.229,6.789,14.961s-2.475,11.186-6.789,14.961l19.756,22.577   c10.825-9.473,17.033-23.155,17.033-37.539s-6.208-28.066-17.033-37.539c-4.314-3.775-6.789-9.229-6.789-14.961   s2.475-11.186,6.789-14.961l-19.756-22.577c-10.825,9.473-17.033,23.155-17.033,37.539S310.297,113.46,321.122,122.933z" fill="#ffffff" data-original="#000000" style="" class=""/>
</g>















</g></svg>
