<svg width="512" height="512" viewBox="0 0 512 512" fill="none" xmlns="http://www.w3.org/2000/svg">
<path d="M512 195.75C512 142.412 472.171 98.204 420.69 91.31C413.796 39.829 369.588 0 316.25 0C294.566 0 273.59 6.648 256 18.922C238.41 6.648 217.434 0 195.75 0C142.412 0 98.204 39.829 91.31 91.31C39.829 98.204 0 142.412 0 195.75C0 250.847 42.507 296.196 96.448 300.743L156.625 373.878V512H355.375V373.878L415.552 300.743C469.493 296.196 512 250.847 512 195.75ZM325.375 363.122V482H186.625V363.122L132.66 297.537C142.926 294.782 152.577 290.513 161.36 284.983L211.834 344.497L240.875 335.219V200.597C246.131 198.104 251.194 195.181 256 191.828C260.806 195.181 265.869 198.104 271.125 200.597V335.219L300.166 344.497L350.64 284.983C359.423 290.513 369.074 294.782 379.34 297.537L325.375 363.122ZM184.23 265.568C197.783 250.278 206.973 231.037 209.815 209.811C210.169 209.763 210.521 209.704 210.874 209.653V296.985L184.23 265.568ZM301.125 209.653C301.478 209.704 301.83 209.764 302.184 209.811C305.027 231.036 314.216 250.278 327.769 265.568L301.124 296.985V209.653H301.125ZM406.625 271.125C354.653 269.752 327.12 227.546 331.25 180.75C293.691 183.007 275.667 171.696 256 152.598C229.432 179.277 208.537 181.687 180.75 180.75C185.103 231.193 154.35 269.686 105.375 271.125C63.813 271.125 30 237.312 30 195.75C31.373 143.778 73.579 116.245 120.375 120.375C116.022 69.932 146.775 31.439 195.75 30C218.553 29.262 240.231 42.046 256 58.152C271.629 42.157 292.849 29.475 316.25 30C368.222 31.373 395.755 73.579 391.625 120.375C442.068 116.022 480.561 146.775 482 195.75C482 237.312 448.187 271.125 406.625 271.125Z" fill="#093868"/>
<path d="M60.25 195.75C60.25 220.632 80.493 240.875 105.375 240.875V210.875C97.035 210.875 90.25 204.09 90.25 195.75C90.25 187.41 97.035 180.625 105.375 180.625V150.625C80.493 150.625 60.25 170.868 60.25 195.75Z" fill="#093868"/>
<path d="M195.75 60.25C170.868 60.25 150.625 80.493 150.625 105.375H180.625C180.625 97.035 187.41 90.25 195.75 90.25C204.09 90.25 210.875 97.035 210.875 105.375H240.875C240.875 80.493 220.632 60.25 195.75 60.25Z" fill="#093868"/>
</svg>
