<?xml version="1.0"?>
<svg xmlns="http://www.w3.org/2000/svg" xmlns:xlink="http://www.w3.org/1999/xlink" xmlns:svgjs="http://svgjs.com/svgjs" version="1.1" width="512" height="512" x="0" y="0" viewBox="0 0 512 512" style="enable-background:new 0 0 512 512" xml:space="preserve" class=""><g><g xmlns="http://www.w3.org/2000/svg"><path d="m512 195.75c0-53.338-39.829-97.546-91.31-104.44-6.894-51.481-51.102-91.31-104.44-91.31-21.684 0-42.66 6.648-60.25 18.922-17.59-12.274-38.566-18.922-60.25-18.922-53.338 0-97.546 39.829-104.44 91.31-51.481 6.894-91.31 51.102-91.31 104.44 0 55.097 42.507 100.446 96.448 104.993l60.177 73.135v138.122h198.75v-138.122l60.177-73.135c53.941-4.547 96.448-49.896 96.448-104.993zm-186.625 167.372v118.878h-138.75v-118.878l-53.965-65.585c10.266-2.755 19.917-7.024 28.7-12.554l50.474 59.514 29.041-9.278v-134.622c5.256-2.493 10.319-5.416 15.125-8.769 4.806 3.353 9.869 6.276 15.125 8.769v134.622l29.041 9.278 50.474-59.514c8.783 5.53 18.434 9.799 28.7 12.554zm-141.145-97.554c13.553-15.29 22.743-34.531 25.585-55.757.354-.048.706-.107 1.059-.158v87.332zm116.895-55.915c.353.051.705.111 1.059.158 2.843 21.225 12.032 40.467 25.585 55.757l-26.645 31.417v-87.332zm105.5 61.472c-51.972-1.373-79.505-43.579-75.375-90.375-37.559 2.257-55.583-9.054-75.25-28.152-26.568 26.679-47.463 29.089-75.25 28.152 4.353 50.443-26.4 88.936-75.375 90.375-41.562 0-75.375-33.813-75.375-75.375 1.373-51.972 43.579-79.505 90.375-75.375-4.353-50.443 26.4-88.936 75.375-90.375 22.803-.738 44.481 12.046 60.25 28.152 15.629-15.995 36.849-28.677 60.25-28.152 51.972 1.373 79.505 43.579 75.375 90.375 50.443-4.353 88.936 26.4 90.375 75.375 0 41.562-33.813 75.375-75.375 75.375z" fill="#ffffff" data-original="#000000" style="" class=""/><path d="m60.25 195.75c0 24.882 20.243 45.125 45.125 45.125v-30c-8.34 0-15.125-6.785-15.125-15.125s6.785-15.125 15.125-15.125v-30c-24.882 0-45.125 20.243-45.125 45.125z" fill="#ffffff" data-original="#000000" style="" class=""/><path d="m195.75 60.25c-24.882 0-45.125 20.243-45.125 45.125h30c0-8.34 6.785-15.125 15.125-15.125s15.125 6.785 15.125 15.125h30c0-24.882-20.243-45.125-45.125-45.125z" fill="#ffffff" data-original="#000000" style="" class=""/></g></g></svg>
