<svg width="512" height="512" viewBox="0 0 512 512" fill="none" xmlns="http://www.w3.org/2000/svg">
<rect width="512" height="512" fill="#093868"/>
<path d="M450.012 276.504C450.012 241.613 421.902 213.18 387.141 212.617C393.324 202.781 396.918 191.156 396.918 178.707C396.918 143.492 368.293 114.84 333.09 114.793C335.066 105.594 334.984 96.1094 332.793 86.4102C322.91 42.6992 272.285 10.7969 270.137 9.45703L254.922 0L248.27 16.6328C242.711 30.5313 225.867 33.4063 198.793 36.4883C179.43 38.6914 159.41 40.9688 144.121 51.6016C119.801 68.5195 115.449 96.5195 115.535 114.828C80.9727 115.617 53.0938 143.957 53.0938 178.707C53.0938 191.16 56.6875 202.781 62.8711 212.617C28.1094 213.18 0 241.613 0 276.504C0 300.875 13.7109 322.094 33.8242 332.875L85.1211 512H364.891L416.188 332.871C436.297 322.094 450.012 300.875 450.012 276.504V276.504ZM161.27 76.2539C170.336 69.9492 186.527 68.1055 202.188 66.3242C224.059 63.8359 250.207 60.8594 266.25 43.5977C280.359 54.8789 299.141 73.6094 303.516 93.0898C305.207 100.637 304.633 107.793 301.738 114.793H145.551C145.453 103.023 147.844 85.5938 161.27 76.2539V76.2539ZM117.008 144.82H333.004C351.688 144.82 366.891 160.023 366.891 178.707C366.891 197.391 351.688 212.594 333.004 212.594H117.008C98.3242 212.594 83.1211 197.391 83.1211 178.707C83.1211 160.023 98.3242 144.82 117.008 144.82ZM63.9141 242.621H386.098C404.781 242.621 419.984 257.82 419.984 276.504C419.984 295.188 404.781 310.391 386.098 310.391H63.9141C45.2305 310.391 30.0273 295.188 30.0273 276.504C30.0273 257.82 45.2305 242.621 63.9141 242.621V242.621ZM240.02 340.418H296.484L276.227 481.973H240.02V340.418ZM209.992 481.973H173.785L153.531 340.418H209.992V481.973ZM67.2227 340.418H123.195L143.449 481.973H107.758L67.2227 340.418ZM342.254 481.973H306.562L326.816 340.418H382.793L342.254 481.973Z" fill="white"/>
</svg>
