<?xml version="1.0"?>
<svg xmlns="http://www.w3.org/2000/svg" xmlns:xlink="http://www.w3.org/1999/xlink" xmlns:svgjs="http://svgjs.com/svgjs" version="1.1" width="512" height="512" x="0" y="0" viewBox="0 0 512 512" style="enable-background:new 0 0 512 512" xml:space="preserve" class=""><g><path xmlns="http://www.w3.org/2000/svg" d="m450.011719 276.503906c0-34.890625-28.109375-63.324218-62.871094-63.886718 6.183594-9.835938 9.777344-21.460938 9.777344-33.910157 0-35.214843-28.625-63.867187-63.828125-63.914062 1.976562-9.199219 1.894531-18.683594-.296875-28.382813-9.882813-43.710937-60.507813-75.613281-62.65625-76.953125l-15.214844-9.457031-6.652344 16.632812c-5.558593 13.898438-22.402343 16.773438-49.476562 19.855469-19.363281 2.203125-39.382813 4.480469-54.671875 15.113281-24.320313 16.917969-28.671875 44.917969-28.585938 63.226563-34.5625.789063-62.441406 29.128906-62.441406 63.878906 0 12.453125 3.59375 24.074219 9.777344 33.910157-34.761719.5625-62.871094 28.996093-62.871094 63.886718 0 24.371094 13.710938 45.589844 33.824219 56.371094l51.296875 179.125h279.769531l51.296875-179.128906c20.109375-10.777344 33.824219-31.996094 33.824219-56.367188zm-288.742188-200.25c9.066407-6.304687 25.257813-8.148437 40.917969-9.929687 21.871094-2.488281 48.019531-5.464844 64.0625-22.726563 14.109375 11.28125 32.890625 30.011719 37.265625 49.492188 1.691406 7.546875 1.117187 14.703125-1.777344 21.703125h-156.1875c-.097656-11.769531 2.292969-29.199219 15.71875-38.539063zm-44.261719 68.566406h215.996094c18.683594 0 33.886719 15.203126 33.886719 33.886719 0 18.683594-15.203125 33.886719-33.886719 33.886719h-215.996094c-18.683593 0-33.886718-15.203125-33.886718-33.886719 0-18.683593 15.203125-33.886719 33.886718-33.886719zm-53.09375 97.800782h322.183594c18.683594 0 33.886719 15.199218 33.886719 33.882812s-15.203125 33.886719-33.886719 33.886719h-322.183594c-18.683593 0-33.886718-15.203125-33.886718-33.886719s15.203125-33.882812 33.886718-33.882812zm176.105469 97.796875h56.464844l-20.257813 141.554687h-36.207031zm-30.027343 141.554687h-36.207032l-20.253906-141.554687h56.460938zm-142.769532-141.554687h55.972656l20.253907 141.554687h-35.691407zm275.03125 141.554687h-35.691406l20.253906-141.554687h55.976563zm0 0" fill="#d63b03" data-original="#000000" style="" class=""/></g></svg>
