<svg width="512" height="512" viewBox="0 0 512 512" fill="none" xmlns="http://www.w3.org/2000/svg">
<path d="M388.947 126.741C320.162 57.977 266.602 4.396 266.601 4.396C263.788 1.582 259.973 0 255.993 0C252.014 0 248.198 1.582 245.386 4.396C245.385 4.396 191.824 57.978 123.04 126.742C87.492 162.29 44.585 240.645 82.273 331.652C100.67 376.06 152.079 440.568 240.993 447.172V497C240.993 505.284 247.709 512 255.993 512C264.277 512 270.993 505.284 270.993 497V447.172C359.907 440.567 411.316 376.06 429.713 331.652C467.492 240.426 424.336 162.13 388.947 126.741V126.741ZM270.992 51.219C286.046 66.276 306.879 87.11 331.175 111.403L270.992 171.586V51.219ZM270.992 214.013L352.39 132.615C357.408 137.632 362.525 142.747 367.734 147.955C380.137 160.358 390.135 174.432 397.642 189.536L270.992 316.186V214.013ZM240.994 51.219V171.586L180.811 111.403C205.107 87.111 225.94 66.276 240.994 51.219V51.219ZM144.252 147.956C149.462 142.748 154.578 137.633 159.596 132.616L240.994 214.014V316.188L114.344 189.538C121.851 174.432 131.849 160.358 144.252 147.956ZM109.99 320.171C96.568 287.759 94.535 252.859 102.845 220.463L240.995 358.613V417.003C183.04 411.548 132.61 374.772 109.99 320.171ZM401.997 320.171C379.377 374.772 328.946 411.547 270.992 417.003V358.613L409.142 220.463C417.452 252.86 415.419 287.759 401.997 320.171V320.171Z" fill="#093868"/>
</svg>
