<?xml version="1.0"?>
<svg xmlns="http://www.w3.org/2000/svg" xmlns:xlink="http://www.w3.org/1999/xlink" xmlns:svgjs="http://svgjs.com/svgjs" version="1.1" width="512" height="512" x="0" y="0" viewBox="0 0 512 512" style="enable-background:new 0 0 512 512" xml:space="preserve" class=""><g><path xmlns="http://www.w3.org/2000/svg" d="m388.947 126.741c-68.785-68.764-122.345-122.345-122.346-122.345-2.813-2.814-6.628-4.396-10.608-4.396-3.979 0-7.795 1.582-10.607 4.396-.001 0-53.562 53.582-122.346 122.346-35.548 35.548-78.455 113.903-40.767 204.91 18.397 44.408 69.806 108.916 158.72 115.52v49.828c0 8.284 6.716 15 15 15s15-6.716 15-15v-49.828c88.914-6.605 140.323-71.112 158.72-115.52 37.779-91.226-5.377-169.522-40.766-204.911zm-117.955-75.522c15.054 15.057 35.887 35.891 60.183 60.184l-60.183 60.183zm0 162.794 81.398-81.398c5.018 5.017 10.135 10.132 15.344 15.34 12.403 12.403 22.401 26.477 29.908 41.581l-126.65 126.65zm-29.998-162.794v120.367l-60.183-60.183c24.296-24.292 45.129-45.127 60.183-60.184zm-96.742 96.737c5.21-5.208 10.326-10.323 15.344-15.34l81.398 81.398v102.174l-126.65-126.65c7.507-15.106 17.505-29.18 29.908-41.582zm-34.262 172.215c-13.422-32.412-15.455-67.312-7.145-99.708l138.15 138.15v58.39c-57.955-5.455-108.385-42.231-131.005-96.832zm292.007 0c-22.62 54.601-73.051 91.376-131.005 96.832v-58.39l138.15-138.15c8.31 32.397 6.277 67.296-7.145 99.708z" fill="#ffffff" data-original="#000000" style=""/></g></svg>
