<svg width="512" height="512" viewBox="0 0 512 512" fill="none" xmlns="http://www.w3.org/2000/svg">
<g clip-path="url(#clip0_0:1)">
<path d="M474.75 0H399.521C392.97 0 387.178 4.25 385.212 10.499L357.688 98H247.256C243.906 72.744 232.191 49.477 213.631 31.604C192.469 11.224 164.632 0 135.25 0C72.941 0 22.25 50.692 22.25 113C22.25 175.153 72.691 225.743 134.786 225.994C145.348 312.435 155.695 396.789 164.984 472.482C167.75 495.011 186.951 512 209.649 512H364.54C387.247 512 406.449 495.002 409.206 472.462C423.785 353.247 438.382 234.035 453.005 114.826C453.527 110.562 452.197 106.278 449.35 103.06C446.503 99.842 442.413 98 438.117 98H389.138L410.528 30H474.751C483.035 30 489.751 23.284 489.751 15C489.751 6.716 483.034 0 474.75 0V0ZM153.053 128H348.251L328.119 192H160.858C158.259 170.714 155.653 149.349 153.053 128V128ZM216.894 98H171.463L203.635 65.827C210.148 75.285 214.756 86.182 216.894 98ZM182.422 44.616L135.25 91.787L88.164 44.701C101.553 35.442 117.775 30 135.25 30C152.789 30 169.031 35.391 182.422 44.616V44.616ZM52.25 113C52.25 95.525 57.692 79.303 66.951 65.914L114.037 113L66.951 160.086C57.692 146.697 52.25 130.475 52.25 113V113ZM88.164 181.299L124.854 144.609C126.94 161.723 129.027 178.834 131.109 195.895C115.215 195.11 100.49 189.823 88.164 181.299V181.299ZM164.522 222H318.682L290.16 312.672L257.15 255.5C253.007 248.325 243.834 245.868 236.66 250.01L176.115 284.965C174.782 285.735 173.593 286.701 172.57 287.815C169.911 266.085 167.223 244.112 164.522 222V222ZM316.252 335.886L345.23 343.651L337.465 372.629L308.487 364.865L316.252 335.886ZM258.626 318.054L224.062 338.01L204.106 303.446L238.67 283.491L258.626 318.054ZM194.762 468.827C188.813 420.353 182.43 368.328 175.835 314.479L205.581 366C208.359 370.813 213.401 373.502 218.585 373.502C221.13 373.502 223.709 372.854 226.071 371.49L283.823 338.147C283.91 338.682 284.021 339.21 284.164 339.729L275.627 371.589C274.598 375.432 275.137 379.526 277.126 382.971C279.115 386.416 282.392 388.93 286.234 389.96L296.156 392.618C294.252 392.866 292.364 393.481 290.597 394.502L238.635 424.502C235.19 426.491 232.676 429.767 231.646 433.61C230.617 437.453 231.156 441.547 233.145 444.992L254.511 482H209.649C201.96 482 195.698 476.46 194.762 468.827V468.827ZM281.625 468.963L266.625 442.982L292.606 427.982L307.606 453.963L281.625 468.963ZM379.429 468.82C378.494 476.457 372.233 482 364.54 482H319.045L335.596 472.444C339.041 470.455 341.555 467.179 342.585 463.336C343.614 459.493 343.075 455.399 341.086 451.954L311.086 399.992C310.066 398.225 308.739 396.748 307.213 395.581L344.188 405.488C345.488 405.837 346.794 406.003 348.08 406.003C354.702 406.003 360.764 401.583 362.559 394.882L378.088 336.926C380.232 328.924 375.484 320.699 367.481 318.555L323.467 306.761L350.131 222H409.653C399.572 304.273 389.49 386.546 379.429 468.82V468.82ZM421.164 128C418.548 149.333 415.942 170.667 413.327 192H359.568L379.7 128H421.164Z" fill="#093868"/>
</g>
<defs>
<clipPath id="clip0_0:1">
<rect width="512" height="512" fill="white"/>
</clipPath>
</defs>
</svg>
