<?xml version="1.0"?>
<svg xmlns="http://www.w3.org/2000/svg" xmlns:xlink="http://www.w3.org/1999/xlink" xmlns:svgjs="http://svgjs.com/svgjs" version="1.1" width="512" height="512" x="0" y="0" viewBox="0 0 512 512" style="enable-background:new 0 0 512 512" xml:space="preserve" class=""><g><path xmlns="http://www.w3.org/2000/svg" d="m474.75 0h-75.229c-6.551 0-12.343 4.25-14.309 10.499l-27.524 87.501h-110.432c-3.35-25.256-15.065-48.523-33.625-66.396-21.162-20.38-48.999-31.604-78.381-31.604-62.309 0-113 50.692-113 113 0 62.153 50.441 112.743 112.536 112.994 10.562 86.441 20.909 170.795 30.198 246.488 2.766 22.529 21.967 39.518 44.665 39.518h154.891c22.707 0 41.909-16.998 44.666-39.538 14.579-119.215 29.176-238.427 43.799-357.636.522-4.264-.808-8.548-3.655-11.766s-6.937-5.06-11.233-5.06h-48.979l21.39-68h64.223c8.284 0 15-6.716 15-15s-6.717-15-15.001-15zm-321.697 128h195.198l-20.132 64h-167.261c-2.599-21.286-5.205-42.651-7.805-64zm63.841-30h-45.431l32.172-32.173c6.513 9.458 11.121 20.355 13.259 32.173zm-34.472-53.384-47.172 47.171-47.086-47.086c13.389-9.259 29.611-14.701 47.086-14.701 17.539 0 33.781 5.391 47.172 14.616zm-130.172 68.384c0-17.475 5.442-33.697 14.701-47.086l47.086 47.086-47.086 47.086c-9.259-13.389-14.701-29.611-14.701-47.086zm35.914 68.299 36.69-36.69c2.086 17.114 4.173 34.225 6.255 51.286-15.894-.785-30.619-6.072-42.945-14.596zm76.358 40.701h154.16l-28.522 90.672-33.01-57.172c-4.143-7.175-13.316-9.632-20.49-5.49l-60.545 34.955c-1.333.77-2.522 1.736-3.545 2.85-2.659-21.73-5.347-43.703-8.048-65.815zm151.73 113.886 28.978 7.765-7.765 28.978-28.978-7.764zm-57.626-17.832-34.564 19.956-19.956-34.564 34.564-19.955zm-63.864 150.773c-5.949-48.474-12.332-100.499-18.927-154.348l29.746 51.521c2.778 4.813 7.82 7.502 13.004 7.502 2.545 0 5.124-.648 7.486-2.012l57.752-33.343c.087.535.198 1.063.341 1.582l-8.537 31.86c-1.029 3.843-.49 7.937 1.499 11.382s5.266 5.959 9.108 6.989l9.922 2.658c-1.904.248-3.792.863-5.559 1.884l-51.962 30c-3.445 1.989-5.959 5.265-6.989 9.108-1.029 3.843-.49 7.937 1.499 11.382l21.366 37.008h-44.862c-7.689 0-13.951-5.54-14.887-13.173zm86.863.136-15-25.981 25.981-15 15 25.981zm97.804-.143c-.935 7.637-7.196 13.18-14.889 13.18h-45.495l16.551-9.556c3.445-1.989 5.959-5.265 6.989-9.108 1.029-3.843.49-7.937-1.499-11.382l-30-51.962c-1.02-1.767-2.347-3.244-3.873-4.411l36.975 9.907c1.3.349 2.606.515 3.892.515 6.622 0 12.684-4.42 14.479-11.121l15.529-57.956c2.144-8.002-2.604-16.227-10.607-18.371l-44.014-11.794 26.664-84.761h59.522c-10.081 82.273-20.163 164.546-30.224 246.82zm41.735-340.82c-2.616 21.333-5.222 42.667-7.837 64h-53.759l20.132-64z" fill="#ffffff" data-original="#000000" style="" class=""/></g></svg>
