<svg width="512" height="512" viewBox="0 0 512 512" fill="none" xmlns="http://www.w3.org/2000/svg">
<g clip-path="url(#clip0_0:1)">
<path d="M463.762 12.793C450.384 -2.03901 428.19 -4.25901 412.141 7.63499C389.639 24.309 362.077 51.589 358.55 86.861C355.025 122.134 376.645 154.328 395.402 175.124C397.547 177.503 399.925 179.545 402.462 181.268C397.697 190.808 388.404 197.634 377.336 198.992L346.565 202.768C342.354 180.899 330.477 161.158 316.983 144.85C337.452 122.933 343.407 90.256 330.674 61.769C320.864 39.839 314.417 11.979 314.353 11.7C312.503 3.62699 304.457 -1.41901 296.387 0.428994C288.311 2.27599 283.262 10.32 285.11 18.394C285.396 19.647 292.255 49.351 303.288 74.015C310.767 90.746 307.653 109.834 296.233 123.065C279.773 107.862 265.428 98.655 264.022 97.765C259.126 94.666 252.879 94.666 247.983 97.765C246.577 98.654 232.232 107.862 215.772 123.065C204.351 109.834 201.238 90.746 208.715 74.019C219.75 49.351 226.609 19.647 226.895 18.395C228.743 10.321 223.694 2.27699 215.618 0.429994C207.551 -1.42201 199.498 3.63099 197.651 11.706C197.588 11.983 191.175 39.762 181.329 61.774C168.597 90.258 174.552 122.934 195.022 144.851C181.528 161.159 169.651 180.9 165.44 202.769L134.669 198.993C123.6 197.635 114.307 190.809 109.543 181.268C112.08 179.545 114.457 177.503 116.602 175.125C135.36 154.329 156.98 122.135 153.455 86.861C149.929 51.59 122.366 24.31 99.864 7.63599C83.808 -4.26101 61.615 -2.04101 48.238 12.793C29.48 33.589 7.86001 65.783 11.387 101.055C14.912 136.329 42.476 163.609 64.977 180.281C69.442 183.59 74.381 185.8 79.473 186.957C87.085 209.282 106.846 225.801 131.011 228.767L164.843 232.919C165.111 234.667 165.425 236.415 165.796 238.16C167.734 247.3 170.863 255.902 175.088 263.717C177.97 269.058 181.37 274.055 185.228 278.631C185.286 280.228 185.372 281.818 185.481 283.4L136.152 275.682L109.425 250.871C103.352 245.235 93.862 245.589 88.226 251.658C82.59 257.729 82.942 267.219 89.013 272.855L119.099 300.784C121.288 302.816 124.035 304.149 126.987 304.61L186.926 313.987C185.727 321.427 185.118 329.077 185.118 336.858C185.118 337.13 185.129 337.399 185.131 337.671L126.987 346.768C124.035 347.23 121.289 348.562 119.099 350.594L89.013 378.523C82.942 384.159 82.59 393.649 88.226 399.72C93.862 405.789 103.353 406.143 109.425 400.507L136.152 375.696L188.444 367.514C191.707 382.134 197.263 395.336 204.554 406.235H192.082C157.429 406.235 129.235 434.426 129.235 469.077V497.001C129.235 505.284 135.951 512 144.235 512H208.154C227.301 512 244.464 503.383 256.001 489.837C267.537 503.383 284.7 512 303.847 512H367.766C376.05 512 382.766 505.285 382.766 497.001V469.077C382.766 434.426 354.573 406.235 319.919 406.235H307.447C314.738 395.336 320.294 382.135 323.557 367.514L375.849 375.696L402.576 400.507C408.652 406.145 418.141 405.787 423.775 399.72C429.411 393.649 429.059 384.159 422.988 378.523L392.902 350.594C390.713 348.562 387.966 347.23 385.015 346.768L326.87 337.671C326.871 337.399 326.883 337.13 326.883 336.858C326.883 329.078 326.275 321.428 325.075 313.988L385.014 304.61C387.965 304.148 390.711 302.816 392.901 300.784L422.987 272.855C429.058 267.219 429.41 257.729 423.774 251.658C418.137 245.587 408.646 245.236 402.575 250.871L375.848 275.682L326.518 283.4C326.627 281.817 326.713 280.227 326.771 278.63C330.63 274.052 334.028 269.059 336.904 263.728C341.135 255.902 344.264 247.299 346.201 238.166C346.573 236.418 346.887 234.668 347.156 232.918L380.988 228.766C405.153 225.8 424.915 209.281 432.526 186.955C437.618 185.798 442.558 183.588 447.021 180.281C469.523 163.608 497.086 136.328 500.612 101.055C504.14 65.783 482.52 33.589 463.762 12.793V12.793ZM41.238 98.072C39.211 77.791 51.183 57.155 62.232 42.81L67.494 95.453C68.267 103.19 74.788 108.961 82.402 108.961C82.9 108.961 83.405 108.937 83.912 108.886C92.155 108.062 98.169 100.713 97.346 92.471L92.084 39.83C105.753 51.705 121.571 69.562 123.598 89.843C126.161 115.48 106.354 141.692 94.319 155.034C91.328 158.352 86.384 158.81 82.839 156.181C68.402 145.484 43.8 123.709 41.238 98.072V98.072ZM219.198 303.28C242.179 312.759 269.137 313.04 292.802 303.281C277.53 356.9 234.551 357.124 219.198 303.28V303.28ZM256.08 128.67C278.79 145.279 318.2 181.917 318.2 219.521C318.2 252.647 292.802 280.928 254.879 280.506C218.703 279.929 193.8 252.349 193.8 219.521C193.8 184.032 227.655 149.63 256.08 128.67ZM208.153 482.003H159.234V469.077C159.234 450.966 173.969 436.233 192.081 436.233H241V449.159C241 467.269 226.265 482.003 208.153 482.003ZM352.766 469.077V482.003H303.847C285.736 482.003 271 467.269 271 449.159V436.233H319.919C338.03 436.233 352.766 450.967 352.766 469.077ZM249.163 406.236C235.512 401.889 221.82 383.737 216.965 357.493C240.245 378.995 271.588 379.134 295.035 357.493C290.18 383.738 276.487 401.89 262.837 406.236C257.889 406.236 254.111 406.236 249.163 406.236V406.236ZM470.762 98.073C468.2 123.709 443.598 145.483 429.16 156.182C425.605 158.817 420.666 158.345 417.68 155.034C405.646 141.692 385.839 115.48 388.402 89.844C390.429 69.563 406.247 51.705 419.916 39.83L414.655 92.471C413.832 100.713 419.845 108.062 428.089 108.886C428.597 108.937 429.1 108.961 429.599 108.961C437.212 108.961 443.734 103.188 444.507 95.453L449.769 42.81C460.817 57.155 472.789 77.791 470.762 98.073V98.073Z" fill="#093868"/>
</g>
<defs>
<clipPath id="clip0_0:1">
<rect width="512" height="512" fill="white"/>
</clipPath>
</defs>
</svg>
