<?xml version="1.0"?>
<svg xmlns="http://www.w3.org/2000/svg" xmlns:xlink="http://www.w3.org/1999/xlink" xmlns:svgjs="http://svgjs.com/svgjs" version="1.1" width="512" height="512" x="0" y="0" viewBox="0 0 512 512" style="enable-background:new 0 0 512 512" xml:space="preserve" class=""><g><g xmlns="http://www.w3.org/2000/svg"><path d="m463.762 12.793c-13.378-14.832-35.572-17.052-51.621-5.158-22.502 16.674-50.064 43.954-53.591 79.226-3.525 35.273 18.095 67.467 36.852 88.263 2.145 2.379 4.523 4.421 7.06 6.144-4.765 9.54-14.058 16.366-25.126 17.724l-30.771 3.776c-4.211-21.869-16.088-41.61-29.582-57.918 20.469-21.917 26.424-54.594 13.691-83.081-9.81-21.93-16.257-49.79-16.321-50.069-1.85-8.073-9.896-13.119-17.966-11.271-8.076 1.847-13.125 9.891-11.277 17.965.286 1.253 7.145 30.957 18.178 55.621 7.479 16.731 4.365 35.819-7.055 49.05-16.46-15.203-30.805-24.41-32.211-25.3-4.896-3.099-11.143-3.099-16.039 0-1.406.889-15.751 10.097-32.211 25.3-11.421-13.231-14.534-32.319-7.057-49.046 11.035-24.668 17.894-54.372 18.18-55.624 1.848-8.074-3.201-16.118-11.277-17.965-8.067-1.852-16.12 3.201-17.967 11.276-.063.277-6.476 28.056-16.322 50.068-12.732 28.484-6.777 61.16 13.693 83.077-13.494 16.308-25.371 36.049-29.582 57.918l-30.771-3.776c-11.069-1.358-20.362-8.184-25.126-17.725 2.537-1.723 4.914-3.765 7.059-6.143 18.758-20.796 40.378-52.99 36.853-88.264-3.526-35.271-31.089-62.551-53.591-79.225-16.056-11.897-38.249-9.677-51.626 5.157-18.758 20.796-40.378 52.99-36.851 88.262 3.525 35.274 31.089 62.554 53.59 79.226 4.465 3.309 9.404 5.519 14.496 6.676 7.612 22.325 27.373 38.844 51.538 41.81l33.832 4.152c.268 1.748.582 3.496.953 5.241 1.938 9.14 5.067 17.742 9.292 25.557 2.882 5.341 6.282 10.338 10.14 14.914.058 1.597.144 3.187.253 4.769l-49.329-7.718-26.727-24.811c-6.073-5.636-15.563-5.282-21.199.787-5.636 6.071-5.284 15.561.787 21.197l30.086 27.929c2.189 2.032 4.936 3.365 7.888 3.826l59.939 9.377c-1.199 7.44-1.808 15.09-1.808 22.871 0 .272.011.541.013.813l-58.144 9.097c-2.952.462-5.698 1.794-7.888 3.826l-30.086 27.929c-6.071 5.636-6.423 15.126-.787 21.197 5.636 6.069 15.127 6.423 21.199.787l26.727-24.811 52.292-8.182c3.263 14.62 8.819 27.822 16.11 38.721h-12.472c-34.653 0-62.847 28.191-62.847 62.842v27.924c0 8.283 6.716 14.999 15 14.999h63.919c19.147 0 36.31-8.617 47.847-22.163 11.536 13.546 28.699 22.163 47.846 22.163h63.919c8.284 0 15-6.715 15-14.999v-27.924c0-34.651-28.193-62.842-62.847-62.842h-12.472c7.291-10.899 12.847-24.1 16.11-38.721l52.292 8.182 26.727 24.811c6.076 5.638 15.565 5.28 21.199-.787 5.636-6.071 5.284-15.561-.787-21.197l-30.086-27.929c-2.189-2.032-4.936-3.364-7.887-3.826l-58.145-9.097c.001-.272.013-.541.013-.813 0-7.78-.608-15.43-1.808-22.87l59.939-9.378c2.951-.462 5.697-1.794 7.887-3.826l30.086-27.929c6.071-5.636 6.423-15.126.787-21.197-5.637-6.071-15.128-6.422-21.199-.787l-26.727 24.811-49.33 7.718c.109-1.583.195-3.173.253-4.77 3.859-4.578 7.257-9.571 10.133-14.902 4.231-7.826 7.36-16.429 9.297-25.562.372-1.748.686-3.498.955-5.248l33.832-4.152c24.165-2.966 43.927-19.485 51.538-41.811 5.092-1.157 10.032-3.367 14.495-6.674 22.502-16.673 50.065-43.953 53.591-79.226 3.528-35.272-18.092-67.466-36.85-88.262zm-422.524 85.279c-2.027-20.281 9.945-40.917 20.994-55.262l5.262 52.643c.773 7.737 7.294 13.508 14.908 13.508.498 0 1.003-.024 1.51-.075 8.243-.824 14.257-8.173 13.434-16.415l-5.262-52.641c13.669 11.875 29.487 29.732 31.514 50.013 2.563 25.637-17.244 51.849-29.279 65.191-2.991 3.318-7.935 3.776-11.48 1.147-14.437-10.697-39.039-32.472-41.601-58.109zm177.96 205.208c22.981 9.479 49.939 9.76 73.604.001-15.272 53.619-58.251 53.843-73.604-.001zm36.882-174.61c22.71 16.609 62.12 53.247 62.12 90.851 0 33.126-25.398 61.407-63.321 60.985-36.176-.577-61.079-28.157-61.079-60.985 0-35.489 33.855-69.891 62.28-90.851zm-47.927 353.333h-48.919v-12.926c0-18.111 14.735-32.844 32.847-32.844h48.919v12.926c0 18.11-14.735 32.844-32.847 32.844zm144.613-12.926v12.926h-48.919c-18.111 0-32.847-14.734-32.847-32.844v-12.926h48.919c18.111 0 32.847 14.734 32.847 32.844zm-103.603-62.841c-13.651-4.347-27.343-22.499-32.198-48.743 23.28 21.502 54.623 21.641 78.07 0-4.855 26.245-18.548 44.397-32.198 48.743-4.948 0-8.726 0-13.674 0zm221.599-308.163c-2.562 25.636-27.164 47.41-41.602 58.109-3.555 2.635-8.494 2.163-11.48-1.148-12.034-13.342-31.841-39.554-29.278-65.19 2.027-20.281 17.845-38.139 31.514-50.014l-5.261 52.641c-.823 8.242 5.19 15.591 13.434 16.415.508.051 1.011.075 1.51.075 7.613 0 14.135-5.773 14.908-13.508l5.262-52.643c11.048 14.345 23.02 34.981 20.993 55.263z" fill="#d63b03" data-original="#000000" style="" class=""/></g></g></svg>
