<svg width="512" height="512" viewBox="0 0 512 512" fill="none" xmlns="http://www.w3.org/2000/svg">
<g clip-path="url(#clip0_0:1)">
<path d="M230.787 512C230.735 512 230.688 512 230.635 512C180.92 511.96 134.104 492.502 98.8114 457.21C80.2705 438.67 64.8111 416.276 54.1021 392.451C42.2941 366.178 36.1061 338.446 35.7114 310.023C34.8028 244.609 65.1176 179.237 123.381 120.975C146.65 97.7055 203.071 50.8283 266.938 22.7314C345.519 -11.84 410.277 -6.8982 454.202 37.0268C465.094 47.9181 473.049 65.3561 475.48 83.6726C477.562 99.3484 476.734 123.402 460.972 148.964C424.266 208.489 410.415 255.939 416.063 302.818C422.983 360.263 403.477 416.612 362.546 457.417C327.235 492.618 280.446 512 230.787 512V512ZM361.605 29.9101C337.417 29.9101 309.851 36.6832 279.038 50.2392C219.245 76.5439 166.418 120.436 144.631 142.225C34.6906 252.165 53.0732 368.969 120.062 435.959C181.02 496.915 280.279 496.995 341.328 436.132C375.667 401.899 392.031 354.617 386.224 306.411C379.708 252.321 394.872 198.897 435.391 133.189C456.074 99.649 442.375 67.7002 432.951 58.2765C414.044 39.3709 390.185 29.9101 361.605 29.9101V29.9101Z" fill="#093868"/>
<path d="M230.784 451.893C197.068 451.893 165.292 438.687 141.313 414.708C112.934 386.328 96.3491 347.868 95.8111 309.188C95.4986 286.668 100.403 263.793 110.389 241.2C122.073 214.764 140.744 188.614 165.883 163.476C208.824 120.534 298 60.0576 361.811 60.0576C375.443 60.0576 386.931 62.7494 396.935 68.2862C405.243 72.8854 411.418 80.7874 413.875 89.9637C416.35 99.2071 415.003 108.796 410.084 116.965L409.85 117.35C366.078 188.333 349.102 249.531 356.387 310.005C361.081 348.972 347.858 387.185 320.108 414.849C296.147 438.737 264.424 451.893 230.784 451.893V451.893ZM361.811 90.111C309.571 90.111 226.799 145.061 187.132 184.727C164.627 207.232 148.055 230.32 137.877 253.35C129.652 271.959 125.609 290.605 125.861 308.77C126.291 339.694 139.669 370.561 162.564 393.457C180.867 411.76 205.095 421.84 230.784 421.84C256.413 421.84 280.601 411.799 298.89 393.565C320.048 372.472 330.129 343.327 326.548 313.6C318.406 246.011 336.735 178.658 384.229 101.639L384.316 101.496C385.198 100.033 385.088 98.6461 384.843 97.7345C384.633 96.9491 384.033 95.4945 382.379 94.5789C376.872 91.5315 370.336 90.111 361.811 90.111V90.111Z" fill="#093868"/>
<path d="M231.912 375.978C205.323 375.978 183.69 354.345 183.69 327.756C183.69 301.167 205.323 279.534 231.912 279.534C258.501 279.534 280.133 301.167 280.133 327.756C280.133 354.345 258.501 375.978 231.912 375.978V375.978ZM231.912 309.588C221.894 309.588 213.743 317.738 213.743 327.756C213.743 337.774 221.894 345.924 231.912 345.924C241.93 345.924 250.08 337.774 250.08 327.756C250.08 317.738 241.93 309.588 231.912 309.588Z" fill="#093868"/>
</g>
<defs>
<clipPath id="clip0_0:1">
<rect width="512" height="512" fill="white"/>
</clipPath>
</defs>
</svg>
