<svg width="512" height="512" viewBox="0 0 512 512" fill="none" xmlns="http://www.w3.org/2000/svg">
<path d="M187.828 103.445C184.609 110.906 179.422 115.922 177.848 117.332H214.461C214.531 117.184 214.605 117.047 214.676 116.895C221.305 102.566 225.633 79.8594 208.613 53.0547C200.766 40.6992 199.418 28.7305 204.488 16.4648C208.402 6.99609 214.863 0.726562 215.633 0H179.062C178.48 1.16406 177.906 2.35547 177.363 3.59766C170.719 18.7773 166.355 42.4727 183.285 69.1367C191.039 81.3438 192.523 92.5664 187.828 103.445Z" fill="#093868"/>
<path d="M247.828 103.445C244.609 110.906 239.422 115.922 237.848 117.332H274.461C274.531 117.184 274.605 117.047 274.676 116.895C281.305 102.566 285.633 79.8594 268.613 53.0547C260.766 40.6992 259.418 28.7305 264.488 16.4648C268.402 6.99609 274.863 0.726562 275.633 0H239.062C238.48 1.16406 237.906 2.35547 237.363 3.59766C230.719 18.7773 226.355 42.4727 243.285 69.1367C251.039 81.3438 252.523 92.5664 247.828 103.445V103.445Z" fill="#093868"/>
<path d="M307.828 103.445C304.609 110.906 299.422 115.922 297.848 117.332H334.461C334.531 117.184 334.605 117.047 334.676 116.895C341.305 102.566 345.633 79.8594 328.613 53.0547C320.766 40.6992 319.418 28.7305 324.488 16.4648C328.402 6.99609 334.863 0.726562 335.633 0H299.063C298.48 1.16406 297.906 2.35547 297.363 3.59766C290.719 18.7773 286.355 42.4727 303.285 69.1367C311.039 81.3438 312.523 92.5664 307.828 103.445V103.445Z" fill="#093868"/>
<path d="M0 170.527V226.844C0 271.504 11.6758 315.473 33.7695 354C53.7773 388.895 81.9336 418.777 115.523 440.875V512H396.516V440.848C430.086 418.754 458.23 388.883 478.23 354C500.324 315.473 512 271.504 512 226.844V170.527H0ZM30 200.527H482V226.844C482 231.59 481.852 236.312 481.566 241H30.4336C30.1484 236.309 30 231.59 30 226.844V200.527ZM145.523 482V447.633H366.516V482H145.523ZM377.188 417.633H134.812C81.7617 383.91 46.0625 331.129 34.2734 271H477.727C465.938 331.129 430.238 383.91 377.188 417.633Z" fill="#093868"/>
</svg>
