<?xml version="1.0"?>
<svg xmlns="http://www.w3.org/2000/svg" xmlns:xlink="http://www.w3.org/1999/xlink" xmlns:svgjs="http://svgjs.com/svgjs" version="1.1" width="512" height="512" x="0" y="0" viewBox="0 0 512 512" style="enable-background:new 0 0 512 512" xml:space="preserve" class=""><g><path xmlns="http://www.w3.org/2000/svg" d="m187.828125 103.445312c-3.21875 7.460938-8.40625 12.476563-9.980469 13.886719h36.613282c.070312-.148437.144531-.285156.214843-.4375 6.628907-14.328125 10.957031-37.035156-6.0625-63.839843-7.847656-12.355469-9.195312-24.324219-4.125-36.589844 3.914063-9.46875 10.375-15.738282 11.144531-16.464844h-36.570312c-.582031 1.164062-1.15625 2.355469-1.699219 3.597656-6.644531 15.179688-11.007812 38.875 5.921875 65.539063 7.753906 12.207031 9.238282 23.429687 4.542969 34.308593zm0 0" fill="#ffffff" data-original="#000000" style="" class=""/><path xmlns="http://www.w3.org/2000/svg" d="m247.828125 103.445312c-3.21875 7.460938-8.40625 12.476563-9.980469 13.886719h36.613282c.070312-.148437.144531-.285156.214843-.4375 6.628907-14.328125 10.957031-37.035156-6.0625-63.839843-7.847656-12.355469-9.195312-24.324219-4.125-36.589844 3.914063-9.46875 10.375-15.738282 11.144531-16.464844h-36.570312c-.582031 1.164062-1.15625 2.355469-1.699219 3.597656-6.644531 15.179688-11.007812 38.875 5.921875 65.539063 7.753906 12.207031 9.238282 23.429687 4.542969 34.308593zm0 0" fill="#ffffff" data-original="#000000" style="" class=""/><path xmlns="http://www.w3.org/2000/svg" d="m307.828125 103.445312c-3.21875 7.460938-8.40625 12.476563-9.980469 13.886719h36.613282c.070312-.148437.144531-.285156.214843-.4375 6.628907-14.328125 10.957031-37.035156-6.0625-63.839843-7.847656-12.355469-9.195312-24.324219-4.125-36.589844 3.914063-9.46875 10.375-15.738282 11.144531-16.464844h-36.570312c-.582031 1.164062-1.15625 2.355469-1.699219 3.597656-6.644531 15.179688-11.007812 38.875 5.921875 65.539063 7.753906 12.207031 9.238282 23.429687 4.542969 34.308593zm0 0" fill="#ffffff" data-original="#000000" style="" class=""/><path xmlns="http://www.w3.org/2000/svg" d="m0 170.527344v56.316406c0 44.660156 11.675781 88.628906 33.769531 127.15625 20.007813 34.894531 48.164063 64.777344 81.753907 86.875v71.125h280.992187v-71.152344c33.570313-22.09375 61.714844-51.964844 81.714844-86.847656 22.09375-38.527344 33.769531-82.496094 33.769531-127.15625v-56.316406zm30 30h452v26.316406c0 4.746094-.148438 9.46875-.433594 14.15625h-451.132812c-.285156-4.691406-.433594-9.410156-.433594-14.15625zm115.523438 281.472656v-34.367188h220.992187v34.367188zm231.664062-64.367188h-242.375c-53.050781-33.722656-88.75-86.503906-100.539062-146.632812h443.453124c-11.789062 60.128906-47.488281 112.910156-100.539062 146.632812zm0 0" fill="#ffffff" data-original="#000000" style="" class=""/></g></svg>
