<svg width="288" height="288" viewBox="0 0 288 288" fill="none" xmlns="http://www.w3.org/2000/svg">
<path d="M186.36 169.56C185.244 168.435 183.917 167.543 182.455 166.933C180.993 166.324 179.424 166.01 177.84 166.01C176.256 166.01 174.687 166.324 173.225 166.933C171.763 167.543 170.436 168.435 169.32 169.56C167.085 171.808 165.83 174.85 165.83 178.02C165.83 181.19 167.085 184.232 169.32 186.48L243.48 260.64C244.596 261.765 245.923 262.658 247.385 263.267C248.847 263.876 250.416 264.19 252 264.19C253.584 264.19 255.153 263.876 256.615 263.267C258.077 262.658 259.404 261.765 260.52 260.64C262.755 258.392 264.01 255.35 264.01 252.18C264.01 249.01 262.755 245.968 260.52 243.72L186.36 169.56ZM201.12 139.68C210.665 139.672 219.815 135.873 226.56 129.12L260.52 95.1601C262.755 92.9117 264.01 89.8703 264.01 86.7001C264.01 83.5298 262.755 80.4884 260.52 78.2401C259.404 77.1153 258.077 76.2226 256.615 75.6134C255.153 75.0041 253.584 74.6905 252 74.6905C250.416 74.6905 248.847 75.0041 247.385 75.6134C245.923 76.2226 244.596 77.1153 243.48 78.2401L209.52 112.2C207.272 114.435 204.23 115.69 201.06 115.69C197.89 115.69 194.848 114.435 192.6 112.2L235.08 69.72C237.315 67.4717 238.57 64.4303 238.57 61.2601C238.57 58.0898 237.315 55.0484 235.08 52.8001C233.964 51.6753 232.637 50.7826 231.175 50.1734C229.713 49.5641 228.144 49.2505 226.56 49.2505C224.976 49.2505 223.407 49.5641 221.945 50.1734C220.483 50.7826 219.156 51.6753 218.04 52.8001L175.68 95.1601C173.445 92.9117 172.19 89.8703 172.19 86.7001C172.19 83.5298 173.445 80.4884 175.68 78.2401L209.52 44.2801C210.776 43.2043 211.796 41.8805 212.517 40.3917C213.237 38.9029 213.642 37.2813 213.706 35.6287C213.769 33.9761 213.491 32.3281 212.888 30.7882C212.284 29.2483 211.369 27.8497 210.2 26.6802C209.03 25.5108 207.632 24.5957 206.092 23.9924C204.552 23.3891 202.904 23.1106 201.251 23.1745C199.599 23.2383 197.977 23.6431 196.488 24.3633C195 25.0836 193.676 26.1039 192.6 27.3601L158.64 61.3201C151.898 68.0701 148.112 77.22 148.112 86.7601C148.112 96.3001 151.898 105.45 158.64 112.2V112.2L144 127.08L125.28 108.6C130.593 99.0115 132.602 87.9408 130.997 77.0968C129.392 66.2528 124.263 56.2386 116.4 48.6001C99.12 31.3201 54.36 12.0001 33.24 33.4801C12.12 54.96 31.2 99.2401 48 116.64C57.382 126.056 69.9958 131.547 83.28 132H84.96C93.0734 131.885 101.016 129.651 108 125.52L126.84 144L27.48 243.36C26.369 244.479 25.4893 245.806 24.891 247.264C24.2928 248.723 23.9878 250.286 23.9933 251.862C23.9989 253.439 24.315 254.999 24.9235 256.454C25.5321 257.909 26.4211 259.229 27.54 260.34C28.6589 261.451 29.9856 262.331 31.4444 262.929C32.9033 263.527 34.4657 263.832 36.0424 263.827C37.6192 263.821 39.1794 263.505 40.6339 262.897C42.0885 262.288 43.409 261.399 44.52 260.28L152.52 152.28L175.56 129.24C178.924 132.577 182.913 135.216 187.299 137.008C191.686 138.799 196.382 139.707 201.12 139.68V139.68ZM101.16 101.28C98.9119 103.515 96.2289 105.264 93.2772 106.42C90.3255 107.576 87.1679 108.114 84 108C76.9848 107.698 70.3603 104.687 65.52 99.6001C52.56 86.6401 43.44 57.24 50.28 50.4C52.5519 48.6862 55.3589 47.8356 58.2 48.0001C73.5156 49.2208 88.012 55.4155 99.48 65.64C104.379 70.1727 107.301 76.4492 107.615 83.1162C107.93 89.7832 105.611 96.3066 101.16 101.28V101.28Z" fill="#093868"/>
</svg>
